<mxfile host="app.diagrams.net" modified="2023-04-26T20:18:16.884Z" agent="Mozilla/5.0 (Windows NT 10.0; Win64; x64) AppleWebKit/537.36 (KHTML, like Gecko) Chrome/112.0.0.0 Safari/537.36" etag="fvEMjxsEpApqVv8e_9eM" version="21.2.1" type="device">
  <diagram name="PÃ¡gina-1" id="encAISU7flxPcGQpS7jm">
    <mxGraphModel dx="1781" dy="584" grid="1" gridSize="10" guides="1" tooltips="1" connect="1" arrows="1" fold="1" page="1" pageScale="1" pageWidth="827" pageHeight="1169" math="0" shadow="0">
      <root>
        <mxCell id="0" />
        <mxCell id="1" parent="0" />
        <mxCell id="7ZLixm811Vy6vhKqSGCK-1" value="ALUMNO" style="rounded=0;whiteSpace=wrap;html=1;" parent="1" vertex="1">
          <mxGeometry x="60" y="180" width="120" height="60" as="geometry" />
        </mxCell>
        <mxCell id="7ZLixm811Vy6vhKqSGCK-2" value="CURSO" style="rounded=0;whiteSpace=wrap;html=1;" parent="1" vertex="1">
          <mxGeometry x="400" y="180" width="120" height="60" as="geometry" />
        </mxCell>
        <mxCell id="7ZLixm811Vy6vhKqSGCK-6" value="&lt;span style=&quot;color: rgb(0, 0, 0); font-family: Helvetica; font-size: 12px; font-style: normal; font-variant-ligatures: normal; font-variant-caps: normal; font-weight: 400; letter-spacing: normal; orphans: 2; text-align: center; text-indent: 0px; text-transform: none; widows: 2; word-spacing: 0px; -webkit-text-stroke-width: 0px; background-color: rgb(251, 251, 251); text-decoration-thickness: initial; text-decoration-style: initial; text-decoration-color: initial; float: none; display: inline !important;&quot;&gt;Nombre&lt;/span&gt;" style="ellipse;whiteSpace=wrap;html=1;" parent="1" vertex="1">
          <mxGeometry x="125" y="105" width="80" height="40" as="geometry" />
        </mxCell>
        <mxCell id="7ZLixm811Vy6vhKqSGCK-8" value="&lt;u&gt;Id&lt;/u&gt;" style="ellipse;whiteSpace=wrap;html=1;" parent="1" vertex="1">
          <mxGeometry x="15" y="105" width="60" height="30" as="geometry" />
        </mxCell>
        <mxCell id="7ZLixm811Vy6vhKqSGCK-9" value="" style="rhombus;whiteSpace=wrap;html=1;" parent="1" vertex="1">
          <mxGeometry x="260" y="270" width="50" height="40" as="geometry" />
        </mxCell>
        <mxCell id="7ZLixm811Vy6vhKqSGCK-10" value="" style="endArrow=none;html=1;rounded=0;exitX=1;exitY=0.5;exitDx=0;exitDy=0;" parent="1" source="7ZLixm811Vy6vhKqSGCK-1" target="7ZLixm811Vy6vhKqSGCK-9" edge="1">
          <mxGeometry width="50" height="50" relative="1" as="geometry">
            <mxPoint x="390" y="340" as="sourcePoint" />
            <mxPoint x="440" y="290" as="targetPoint" />
          </mxGeometry>
        </mxCell>
        <mxCell id="7ZLixm811Vy6vhKqSGCK-11" value="" style="endArrow=none;html=1;rounded=0;entryX=0;entryY=0.5;entryDx=0;entryDy=0;exitX=1;exitY=0.5;exitDx=0;exitDy=0;" parent="1" source="7ZLixm811Vy6vhKqSGCK-9" target="7ZLixm811Vy6vhKqSGCK-2" edge="1">
          <mxGeometry width="50" height="50" relative="1" as="geometry">
            <mxPoint x="390" y="340" as="sourcePoint" />
            <mxPoint x="440" y="290" as="targetPoint" />
          </mxGeometry>
        </mxCell>
        <mxCell id="7ZLixm811Vy6vhKqSGCK-12" value="CURSA" style="text;html=1;align=center;verticalAlign=middle;resizable=0;points=[];autosize=1;strokeColor=none;fillColor=none;" parent="1" vertex="1">
          <mxGeometry x="255" y="310" width="70" height="30" as="geometry" />
        </mxCell>
        <mxCell id="7ZLixm811Vy6vhKqSGCK-14" value="" style="rhombus;whiteSpace=wrap;html=1;" parent="1" vertex="1">
          <mxGeometry x="600" y="190" width="50" height="40" as="geometry" />
        </mxCell>
        <mxCell id="7ZLixm811Vy6vhKqSGCK-15" value="" style="endArrow=none;html=1;rounded=0;exitX=1;exitY=0.5;exitDx=0;exitDy=0;" parent="1" target="7ZLixm811Vy6vhKqSGCK-14" edge="1">
          <mxGeometry width="50" height="50" relative="1" as="geometry">
            <mxPoint x="520" y="210" as="sourcePoint" />
            <mxPoint x="780" y="290" as="targetPoint" />
          </mxGeometry>
        </mxCell>
        <mxCell id="7ZLixm811Vy6vhKqSGCK-16" value="" style="endArrow=none;html=1;rounded=0;entryX=0;entryY=0.5;entryDx=0;entryDy=0;exitX=1;exitY=0.5;exitDx=0;exitDy=0;" parent="1" source="7ZLixm811Vy6vhKqSGCK-14" edge="1">
          <mxGeometry width="50" height="50" relative="1" as="geometry">
            <mxPoint x="730" y="340" as="sourcePoint" />
            <mxPoint x="740" y="210" as="targetPoint" />
          </mxGeometry>
        </mxCell>
        <mxCell id="7ZLixm811Vy6vhKqSGCK-17" value="INSTRUCTOR" style="rounded=0;whiteSpace=wrap;html=1;" parent="1" vertex="1">
          <mxGeometry x="690" y="178" width="120" height="60" as="geometry" />
        </mxCell>
        <mxCell id="7ZLixm811Vy6vhKqSGCK-18" value="N" style="text;html=1;align=center;verticalAlign=middle;resizable=0;points=[];autosize=1;strokeColor=none;fillColor=none;" parent="1" vertex="1">
          <mxGeometry x="175" y="220" width="30" height="30" as="geometry" />
        </mxCell>
        <mxCell id="7ZLixm811Vy6vhKqSGCK-19" value="N" style="text;html=1;align=center;verticalAlign=middle;resizable=0;points=[];autosize=1;strokeColor=none;fillColor=none;" parent="1" vertex="1">
          <mxGeometry x="370" y="220" width="30" height="30" as="geometry" />
        </mxCell>
        <mxCell id="7ZLixm811Vy6vhKqSGCK-20" value="N" style="text;html=1;align=center;verticalAlign=middle;resizable=0;points=[];autosize=1;strokeColor=none;fillColor=none;" parent="1" vertex="1">
          <mxGeometry x="515" y="208" width="30" height="30" as="geometry" />
        </mxCell>
        <mxCell id="7ZLixm811Vy6vhKqSGCK-21" value="N" style="text;html=1;align=center;verticalAlign=middle;resizable=0;points=[];autosize=1;strokeColor=none;fillColor=none;" parent="1" vertex="1">
          <mxGeometry x="660" y="208" width="30" height="30" as="geometry" />
        </mxCell>
        <mxCell id="7ZLixm811Vy6vhKqSGCK-22" value="&lt;span style=&quot;color: rgb(0, 0, 0); font-family: Helvetica; font-size: 12px; font-style: normal; font-variant-ligatures: normal; font-variant-caps: normal; font-weight: 400; letter-spacing: normal; orphans: 2; text-align: center; text-indent: 0px; text-transform: none; widows: 2; word-spacing: 0px; -webkit-text-stroke-width: 0px; background-color: rgb(251, 251, 251); text-decoration-thickness: initial; text-decoration-style: initial; text-decoration-color: initial; float: none; display: inline !important;&quot;&gt;Duracion&lt;/span&gt;" style="ellipse;whiteSpace=wrap;html=1;" parent="1" vertex="1">
          <mxGeometry x="500" y="70" width="80" height="40" as="geometry" />
        </mxCell>
        <mxCell id="7ZLixm811Vy6vhKqSGCK-23" value="&lt;span style=&quot;color: rgb(0, 0, 0); font-family: Helvetica; font-size: 12px; font-style: normal; font-variant-ligatures: normal; font-variant-caps: normal; font-weight: 400; letter-spacing: normal; orphans: 2; text-align: center; text-indent: 0px; text-transform: none; widows: 2; word-spacing: 0px; -webkit-text-stroke-width: 0px; background-color: rgb(251, 251, 251); text-decoration-thickness: initial; text-decoration-style: initial; text-decoration-color: initial; float: none; display: inline !important;&quot;&gt;&lt;u&gt;codigo&lt;/u&gt;&lt;/span&gt;" style="ellipse;whiteSpace=wrap;html=1;" parent="1" vertex="1">
          <mxGeometry x="435" y="30" width="80" height="40" as="geometry" />
        </mxCell>
        <mxCell id="7ZLixm811Vy6vhKqSGCK-24" value="&lt;span style=&quot;color: rgb(0, 0, 0); font-family: Helvetica; font-size: 12px; font-style: normal; font-variant-ligatures: normal; font-variant-caps: normal; font-weight: 400; letter-spacing: normal; orphans: 2; text-align: center; text-indent: 0px; text-transform: none; widows: 2; word-spacing: 0px; -webkit-text-stroke-width: 0px; background-color: rgb(251, 251, 251); text-decoration-thickness: initial; text-decoration-style: initial; text-decoration-color: initial; float: none; display: inline !important;&quot;&gt;Nombre&lt;/span&gt;" style="ellipse;whiteSpace=wrap;html=1;" parent="1" vertex="1">
          <mxGeometry x="500" y="110" width="80" height="40" as="geometry" />
        </mxCell>
        <mxCell id="7ZLixm811Vy6vhKqSGCK-25" value="&lt;span style=&quot;color: rgb(0, 0, 0); font-family: Helvetica; font-size: 12px; font-style: normal; font-variant-ligatures: normal; font-variant-caps: normal; font-weight: 400; letter-spacing: normal; orphans: 2; text-align: center; text-indent: 0px; text-transform: none; widows: 2; word-spacing: 0px; -webkit-text-stroke-width: 0px; background-color: rgb(251, 251, 251); text-decoration-thickness: initial; text-decoration-style: initial; text-decoration-color: initial; float: none; display: inline !important;&quot;&gt;cuota&lt;/span&gt;" style="ellipse;whiteSpace=wrap;html=1;" parent="1" vertex="1">
          <mxGeometry x="355" y="40" width="80" height="40" as="geometry" />
        </mxCell>
        <mxCell id="7ZLixm811Vy6vhKqSGCK-26" value="&lt;span style=&quot;color: rgb(0, 0, 0); font-family: Helvetica; font-size: 12px; font-style: normal; font-variant-ligatures: normal; font-variant-caps: normal; font-weight: 400; letter-spacing: normal; orphans: 2; text-align: center; text-indent: 0px; text-transform: none; widows: 2; word-spacing: 0px; -webkit-text-stroke-width: 0px; background-color: rgb(251, 251, 251); text-decoration-thickness: initial; text-decoration-style: initial; text-decoration-color: initial; float: none; display: inline !important;&quot;&gt;telefono&lt;/span&gt;" style="ellipse;whiteSpace=wrap;html=1;" parent="1" vertex="1">
          <mxGeometry x="770" y="260" width="80" height="40" as="geometry" />
        </mxCell>
        <mxCell id="7ZLixm811Vy6vhKqSGCK-27" value="&lt;span style=&quot;color: rgb(0, 0, 0); font-family: Helvetica; font-size: 12px; font-style: normal; font-variant-ligatures: normal; font-variant-caps: normal; font-weight: 400; letter-spacing: normal; orphans: 2; text-align: center; text-indent: 0px; text-transform: none; widows: 2; word-spacing: 0px; -webkit-text-stroke-width: 0px; background-color: rgb(251, 251, 251); text-decoration-thickness: initial; text-decoration-style: initial; text-decoration-color: initial; float: none; display: inline !important;&quot;&gt;Nombre&lt;/span&gt;" style="ellipse;whiteSpace=wrap;html=1;" parent="1" vertex="1">
          <mxGeometry x="680" y="260" width="80" height="40" as="geometry" />
        </mxCell>
        <mxCell id="7ZLixm811Vy6vhKqSGCK-28" value="&lt;span style=&quot;color: rgb(0, 0, 0); font-family: Helvetica; font-size: 12px; font-style: normal; font-variant-ligatures: normal; font-variant-caps: normal; font-weight: 400; letter-spacing: normal; orphans: 2; text-align: center; text-indent: 0px; text-transform: none; widows: 2; word-spacing: 0px; -webkit-text-stroke-width: 0px; background-color: rgb(251, 251, 251); text-decoration-thickness: initial; text-decoration-style: initial; text-decoration-color: initial; float: none; display: inline !important;&quot;&gt;&lt;u&gt;Id&lt;/u&gt;&lt;/span&gt;" style="ellipse;whiteSpace=wrap;html=1;" parent="1" vertex="1">
          <mxGeometry x="740" y="100" width="80" height="40" as="geometry" />
        </mxCell>
        <mxCell id="7ZLixm811Vy6vhKqSGCK-29" value="DICTADOR POR" style="text;html=1;align=center;verticalAlign=middle;resizable=0;points=[];autosize=1;strokeColor=none;fillColor=none;" parent="1" vertex="1">
          <mxGeometry x="555" y="158" width="110" height="30" as="geometry" />
        </mxCell>
        <mxCell id="7ZLixm811Vy6vhKqSGCK-31" value="" style="endArrow=none;html=1;rounded=0;exitX=1;exitY=0.5;exitDx=0;exitDy=0;" parent="1" target="7ZLixm811Vy6vhKqSGCK-1" edge="1">
          <mxGeometry relative="1" as="geometry">
            <mxPoint x="30" y="210" as="sourcePoint" />
            <mxPoint x="490" y="330" as="targetPoint" />
          </mxGeometry>
        </mxCell>
        <mxCell id="7ZLixm811Vy6vhKqSGCK-34" value="" style="endArrow=none;html=1;rounded=0;entryX=0.5;entryY=0;entryDx=0;entryDy=0;" parent="1" source="7ZLixm811Vy6vhKqSGCK-6" target="7ZLixm811Vy6vhKqSGCK-1" edge="1">
          <mxGeometry relative="1" as="geometry">
            <mxPoint x="330" y="320" as="sourcePoint" />
            <mxPoint x="490" y="320" as="targetPoint" />
          </mxGeometry>
        </mxCell>
        <mxCell id="7ZLixm811Vy6vhKqSGCK-35" value="" style="endArrow=none;html=1;rounded=0;exitX=1;exitY=1;exitDx=0;exitDy=0;entryX=0.5;entryY=0;entryDx=0;entryDy=0;" parent="1" source="7ZLixm811Vy6vhKqSGCK-8" target="7ZLixm811Vy6vhKqSGCK-1" edge="1">
          <mxGeometry relative="1" as="geometry">
            <mxPoint x="330" y="320" as="sourcePoint" />
            <mxPoint x="490" y="320" as="targetPoint" />
          </mxGeometry>
        </mxCell>
        <mxCell id="7ZLixm811Vy6vhKqSGCK-36" value="Telefono" style="ellipse;shape=doubleEllipse;margin=3;whiteSpace=wrap;html=1;align=center;" parent="1" vertex="1">
          <mxGeometry x="840" y="100" width="100" height="40" as="geometry" />
        </mxCell>
        <mxCell id="7ZLixm811Vy6vhKqSGCK-37" value="Correo electronico" style="ellipse;whiteSpace=wrap;html=1;align=center;" parent="1" vertex="1">
          <mxGeometry x="870" y="190" width="100" height="40" as="geometry" />
        </mxCell>
        <mxCell id="7ZLixm811Vy6vhKqSGCK-38" value="Telefono" style="ellipse;whiteSpace=wrap;html=1;align=center;fontStyle=4;" parent="1" vertex="1">
          <mxGeometry x="-70" y="190" width="100" height="40" as="geometry" />
        </mxCell>
        <mxCell id="7ZLixm811Vy6vhKqSGCK-39" value="" style="endArrow=none;html=1;rounded=0;" parent="1" source="7ZLixm811Vy6vhKqSGCK-2" edge="1">
          <mxGeometry relative="1" as="geometry">
            <mxPoint x="320" y="320" as="sourcePoint" />
            <mxPoint x="460" y="280" as="targetPoint" />
          </mxGeometry>
        </mxCell>
        <mxCell id="7ZLixm811Vy6vhKqSGCK-40" value="" style="rhombus;whiteSpace=wrap;html=1;" parent="1" vertex="1">
          <mxGeometry x="435" y="270" width="50" height="40" as="geometry" />
        </mxCell>
        <mxCell id="7ZLixm811Vy6vhKqSGCK-42" value="" style="endArrow=none;html=1;rounded=0;exitX=0.5;exitY=1;exitDx=0;exitDy=0;" parent="1" source="7ZLixm811Vy6vhKqSGCK-40" edge="1">
          <mxGeometry relative="1" as="geometry">
            <mxPoint x="470" y="250" as="sourcePoint" />
            <mxPoint x="460" y="340" as="targetPoint" />
          </mxGeometry>
        </mxCell>
        <mxCell id="7ZLixm811Vy6vhKqSGCK-43" value="AULA" style="rounded=0;whiteSpace=wrap;html=1;" parent="1" vertex="1">
          <mxGeometry x="400" y="340" width="120" height="60" as="geometry" />
        </mxCell>
        <mxCell id="7ZLixm811Vy6vhKqSGCK-44" value="N" style="text;html=1;align=center;verticalAlign=middle;resizable=0;points=[];autosize=1;strokeColor=none;fillColor=none;" parent="1" vertex="1">
          <mxGeometry x="455" y="238" width="30" height="30" as="geometry" />
        </mxCell>
        <mxCell id="7ZLixm811Vy6vhKqSGCK-45" value="1" style="text;html=1;align=center;verticalAlign=middle;resizable=0;points=[];autosize=1;strokeColor=none;fillColor=none;" parent="1" vertex="1">
          <mxGeometry x="455" y="318" width="30" height="30" as="geometry" />
        </mxCell>
        <mxCell id="7ZLixm811Vy6vhKqSGCK-46" value="Capacidad" style="ellipse;whiteSpace=wrap;html=1;align=center;" parent="1" vertex="1">
          <mxGeometry x="240" y="350" width="100" height="40" as="geometry" />
        </mxCell>
        <mxCell id="7ZLixm811Vy6vhKqSGCK-47" value="PISO" style="ellipse;whiteSpace=wrap;html=1;align=center;" parent="1" vertex="1">
          <mxGeometry x="410" y="430" width="100" height="40" as="geometry" />
        </mxCell>
        <mxCell id="7ZLixm811Vy6vhKqSGCK-49" value="&lt;u&gt;Id&lt;/u&gt;" style="ellipse;whiteSpace=wrap;html=1;align=center;" parent="1" vertex="1">
          <mxGeometry x="555" y="350" width="100" height="40" as="geometry" />
        </mxCell>
        <mxCell id="7ZLixm811Vy6vhKqSGCK-50" value="" style="endArrow=none;html=1;rounded=0;exitX=1;exitY=0.5;exitDx=0;exitDy=0;" parent="1" source="7ZLixm811Vy6vhKqSGCK-46" target="7ZLixm811Vy6vhKqSGCK-43" edge="1">
          <mxGeometry relative="1" as="geometry">
            <mxPoint x="320" y="320" as="sourcePoint" />
            <mxPoint x="480" y="320" as="targetPoint" />
          </mxGeometry>
        </mxCell>
        <mxCell id="7ZLixm811Vy6vhKqSGCK-52" value="" style="endArrow=none;html=1;rounded=0;exitX=0.5;exitY=0;exitDx=0;exitDy=0;entryX=0.5;entryY=1;entryDx=0;entryDy=0;" parent="1" source="7ZLixm811Vy6vhKqSGCK-47" target="7ZLixm811Vy6vhKqSGCK-43" edge="1">
          <mxGeometry relative="1" as="geometry">
            <mxPoint x="320" y="320" as="sourcePoint" />
            <mxPoint x="480" y="320" as="targetPoint" />
          </mxGeometry>
        </mxCell>
        <mxCell id="7ZLixm811Vy6vhKqSGCK-53" value="" style="endArrow=none;html=1;rounded=0;entryX=0;entryY=0.5;entryDx=0;entryDy=0;" parent="1" source="7ZLixm811Vy6vhKqSGCK-43" target="7ZLixm811Vy6vhKqSGCK-49" edge="1">
          <mxGeometry relative="1" as="geometry">
            <mxPoint x="320" y="320" as="sourcePoint" />
            <mxPoint x="480" y="320" as="targetPoint" />
          </mxGeometry>
        </mxCell>
        <mxCell id="7ZLixm811Vy6vhKqSGCK-58" value="" style="endArrow=none;html=1;rounded=0;exitX=0.5;exitY=1;exitDx=0;exitDy=0;" parent="1" source="7ZLixm811Vy6vhKqSGCK-1" edge="1">
          <mxGeometry relative="1" as="geometry">
            <mxPoint x="320" y="220" as="sourcePoint" />
            <mxPoint x="120" y="280" as="targetPoint" />
          </mxGeometry>
        </mxCell>
        <mxCell id="7ZLixm811Vy6vhKqSGCK-59" value="VIVE EN" style="shape=rhombus;perimeter=rhombusPerimeter;whiteSpace=wrap;html=1;align=center;" parent="1" vertex="1">
          <mxGeometry x="75" y="280" width="90" height="40" as="geometry" />
        </mxCell>
        <mxCell id="7ZLixm811Vy6vhKqSGCK-60" value="" style="endArrow=none;html=1;rounded=0;entryX=0.5;entryY=1;entryDx=0;entryDy=0;exitX=0.5;exitY=0;exitDx=0;exitDy=0;" parent="1" target="7ZLixm811Vy6vhKqSGCK-59" edge="1" source="7ZLixm811Vy6vhKqSGCK-61">
          <mxGeometry relative="1" as="geometry">
            <mxPoint x="120" y="360" as="sourcePoint" />
            <mxPoint x="130" y="290" as="targetPoint" />
          </mxGeometry>
        </mxCell>
        <mxCell id="7ZLixm811Vy6vhKqSGCK-61" value="LOCALIDAD" style="rounded=0;whiteSpace=wrap;html=1;" parent="1" vertex="1">
          <mxGeometry x="60" y="370" width="120" height="60" as="geometry" />
        </mxCell>
        <mxCell id="7ZLixm811Vy6vhKqSGCK-73" value="N" style="text;html=1;align=center;verticalAlign=middle;resizable=0;points=[];autosize=1;strokeColor=none;fillColor=none;" parent="1" vertex="1">
          <mxGeometry x="115" y="148" width="30" height="30" as="geometry" />
        </mxCell>
        <mxCell id="7ZLixm811Vy6vhKqSGCK-75" value="" style="endArrow=none;html=1;rounded=0;exitX=0.5;exitY=1;exitDx=0;exitDy=0;entryX=0.5;entryY=0;entryDx=0;entryDy=0;" parent="1" edge="1" target="7ZLixm811Vy6vhKqSGCK-76" source="7ZLixm811Vy6vhKqSGCK-61">
          <mxGeometry relative="1" as="geometry">
            <mxPoint x="128" y="436.01" as="sourcePoint" />
            <mxPoint x="120" y="450" as="targetPoint" />
          </mxGeometry>
        </mxCell>
        <mxCell id="7ZLixm811Vy6vhKqSGCK-76" value="PERTENECE" style="shape=rhombus;perimeter=rhombusPerimeter;whiteSpace=wrap;html=1;align=center;" parent="1" vertex="1">
          <mxGeometry x="75" y="460" width="90" height="40" as="geometry" />
        </mxCell>
        <mxCell id="7ZLixm811Vy6vhKqSGCK-78" value="" style="endArrow=none;html=1;rounded=0;entryX=0.5;entryY=1;entryDx=0;entryDy=0;exitX=0.5;exitY=0.083;exitDx=0;exitDy=0;exitPerimeter=0;" parent="1" source="7ZLixm811Vy6vhKqSGCK-79" target="7ZLixm811Vy6vhKqSGCK-76" edge="1">
          <mxGeometry relative="1" as="geometry">
            <mxPoint x="120" y="520" as="sourcePoint" />
            <mxPoint x="130" y="330" as="targetPoint" />
          </mxGeometry>
        </mxCell>
        <mxCell id="7ZLixm811Vy6vhKqSGCK-79" value="PROVINCIA" style="rounded=0;whiteSpace=wrap;html=1;" parent="1" vertex="1">
          <mxGeometry x="60" y="525" width="120" height="60" as="geometry" />
        </mxCell>
        <mxCell id="7ZLixm811Vy6vhKqSGCK-81" value="" style="endArrow=none;html=1;rounded=0;" parent="1" source="7ZLixm811Vy6vhKqSGCK-1" edge="1">
          <mxGeometry relative="1" as="geometry">
            <mxPoint x="320" y="120" as="sourcePoint" />
            <mxPoint x="250" y="210" as="targetPoint" />
          </mxGeometry>
        </mxCell>
        <mxCell id="7ZLixm811Vy6vhKqSGCK-82" value="" style="rhombus;whiteSpace=wrap;html=1;" parent="1" vertex="1">
          <mxGeometry x="250" y="190" width="50" height="40" as="geometry" />
        </mxCell>
        <mxCell id="7ZLixm811Vy6vhKqSGCK-84" value="RINDE" style="text;html=1;align=center;verticalAlign=middle;resizable=0;points=[];autosize=1;strokeColor=none;fillColor=none;" parent="1" vertex="1">
          <mxGeometry x="245" y="230" width="60" height="30" as="geometry" />
        </mxCell>
        <mxCell id="7ZLixm811Vy6vhKqSGCK-85" value="" style="endArrow=none;html=1;rounded=0;exitX=1;exitY=0.5;exitDx=0;exitDy=0;" parent="1" source="7ZLixm811Vy6vhKqSGCK-82" target="7ZLixm811Vy6vhKqSGCK-2" edge="1">
          <mxGeometry relative="1" as="geometry">
            <mxPoint x="320" y="120" as="sourcePoint" />
            <mxPoint x="480" y="120" as="targetPoint" />
          </mxGeometry>
        </mxCell>
        <mxCell id="7ZLixm811Vy6vhKqSGCK-86" value="N" style="text;html=1;align=center;verticalAlign=middle;resizable=0;points=[];autosize=1;strokeColor=none;fillColor=none;" parent="1" vertex="1">
          <mxGeometry x="175" y="188" width="30" height="30" as="geometry" />
        </mxCell>
        <mxCell id="7ZLixm811Vy6vhKqSGCK-87" value="N" style="text;html=1;align=center;verticalAlign=middle;resizable=0;points=[];autosize=1;strokeColor=none;fillColor=none;" parent="1" vertex="1">
          <mxGeometry x="365" y="188" width="30" height="30" as="geometry" />
        </mxCell>
        <mxCell id="nnJiqm5LS891x8uS15BC-1" value="N" style="text;html=1;align=center;verticalAlign=middle;resizable=0;points=[];autosize=1;strokeColor=none;fillColor=none;" vertex="1" parent="1">
          <mxGeometry x="115" y="238" width="30" height="30" as="geometry" />
        </mxCell>
        <mxCell id="nnJiqm5LS891x8uS15BC-2" value="N" style="text;html=1;align=center;verticalAlign=middle;resizable=0;points=[];autosize=1;strokeColor=none;fillColor=none;" vertex="1" parent="1">
          <mxGeometry x="125" y="318" width="30" height="30" as="geometry" />
        </mxCell>
        <mxCell id="nnJiqm5LS891x8uS15BC-7" value="Descripcion" style="ellipse;whiteSpace=wrap;html=1;" vertex="1" parent="1">
          <mxGeometry x="-45" y="420" width="75" height="40" as="geometry" />
        </mxCell>
        <mxCell id="nnJiqm5LS891x8uS15BC-8" value="&lt;u&gt;Id&lt;/u&gt;" style="ellipse;whiteSpace=wrap;html=1;" vertex="1" parent="1">
          <mxGeometry x="-60" y="370" width="60" height="30" as="geometry" />
        </mxCell>
        <mxCell id="nnJiqm5LS891x8uS15BC-9" value="Descripcion" style="ellipse;whiteSpace=wrap;html=1;" vertex="1" parent="1">
          <mxGeometry x="-30" y="600" width="75" height="40" as="geometry" />
        </mxCell>
        <mxCell id="nnJiqm5LS891x8uS15BC-10" value="&lt;u&gt;Id&lt;/u&gt;" style="ellipse;whiteSpace=wrap;html=1;" vertex="1" parent="1">
          <mxGeometry x="-45" y="550" width="60" height="30" as="geometry" />
        </mxCell>
        <mxCell id="nnJiqm5LS891x8uS15BC-14" value="1" style="text;html=1;align=center;verticalAlign=middle;resizable=0;points=[];autosize=1;strokeColor=none;fillColor=none;" vertex="1" parent="1">
          <mxGeometry x="115" y="498" width="30" height="30" as="geometry" />
        </mxCell>
        <mxCell id="nnJiqm5LS891x8uS15BC-17" value="N" style="text;html=1;align=center;verticalAlign=middle;resizable=0;points=[];autosize=1;strokeColor=none;fillColor=none;" vertex="1" parent="1">
          <mxGeometry x="115" y="428" width="30" height="30" as="geometry" />
        </mxCell>
        <mxCell id="nnJiqm5LS891x8uS15BC-20" value="Nota" style="ellipse;whiteSpace=wrap;html=1;align=center;" vertex="1" parent="1">
          <mxGeometry x="240" y="131.5" width="70" height="28.5" as="geometry" />
        </mxCell>
        <mxCell id="nnJiqm5LS891x8uS15BC-21" value="&lt;u&gt;Fecha&lt;/u&gt;" style="ellipse;whiteSpace=wrap;html=1;align=center;" vertex="1" parent="1">
          <mxGeometry x="320" y="140" width="80" height="25" as="geometry" />
        </mxCell>
        <mxCell id="nnJiqm5LS891x8uS15BC-22" value="" style="endArrow=none;html=1;rounded=0;entryX=0.5;entryY=0;entryDx=0;entryDy=0;" edge="1" parent="1" target="7ZLixm811Vy6vhKqSGCK-82">
          <mxGeometry relative="1" as="geometry">
            <mxPoint x="360" y="160" as="sourcePoint" />
            <mxPoint x="430" y="210" as="targetPoint" />
          </mxGeometry>
        </mxCell>
        <mxCell id="nnJiqm5LS891x8uS15BC-23" value="" style="endArrow=none;html=1;rounded=0;exitX=0.5;exitY=1;exitDx=0;exitDy=0;" edge="1" parent="1" source="nnJiqm5LS891x8uS15BC-20" target="7ZLixm811Vy6vhKqSGCK-82">
          <mxGeometry relative="1" as="geometry">
            <mxPoint x="270" y="210" as="sourcePoint" />
            <mxPoint x="430" y="210" as="targetPoint" />
          </mxGeometry>
        </mxCell>
        <mxCell id="nnJiqm5LS891x8uS15BC-28" value="&lt;p class=&quot;MsoNormal&quot;&gt;ALUMNO = (&lt;u&gt;Id&lt;/u&gt;, Nombre)&lt;/p&gt;&lt;p class=&quot;MsoNormal&quot;&gt;&lt;span style=&quot;background-color: initial;&quot;&gt;Telefono = (&lt;/span&gt;&lt;u style=&quot;background-color: initial;&quot;&gt;Id_alumno&lt;/u&gt;&lt;span style=&quot;background-color: initial;&quot;&gt;, Numero)&lt;/span&gt;&lt;/p&gt;&lt;span style=&quot;background-color: initial;&quot;&gt;VIVE = (&lt;/span&gt;&lt;b style=&quot;background-color: initial;&quot;&gt;&lt;u&gt;Id_alumno, Id_localidad&lt;/u&gt;&lt;/b&gt;&lt;span style=&quot;background-color: initial;&quot;&gt;)&lt;/span&gt;&lt;br&gt;&lt;p class=&quot;MsoNormal&quot;&gt;Localidad = (&lt;u&gt;Id&lt;/u&gt;, descripciÃ³n)&lt;/p&gt;&lt;p class=&quot;MsoNormal&quot;&gt;Provincia = (&lt;u&gt;Id&lt;/u&gt;, descripciÃ³n, &lt;b&gt;id_localidad&lt;/b&gt;)&lt;/p&gt;&lt;span style=&quot;background-color: initial;&quot;&gt;Rinde = (&lt;/span&gt;&lt;b style=&quot;background-color: initial;&quot;&gt;&lt;u&gt;Id_alumno, cÃ³digo_curso&lt;/u&gt;&lt;/b&gt;&lt;u style=&quot;background-color: initial;&quot;&gt;, fecha, &lt;/u&gt;&lt;span style=&quot;background-color: initial;&quot;&gt;nota)&lt;br&gt;&lt;/span&gt;&lt;span style=&quot;background-color: initial;&quot;&gt;Cursa = &lt;/span&gt;&lt;u style=&quot;background-color: initial;&quot;&gt;(Id_alumno, Id_curso)&lt;/u&gt;&lt;span style=&quot;background-color: initial;&quot;&gt;&lt;br&gt;&lt;/span&gt;&lt;span style=&quot;background-color: initial;&quot;&gt;Curso = (&lt;/span&gt;&lt;u style=&quot;background-color: initial;&quot;&gt;cÃ³digo&lt;/u&gt;&lt;span style=&quot;background-color: initial;&quot;&gt;, cuota, duraciÃ³n, nombre)&lt;/span&gt;&lt;br&gt;&lt;span style=&quot;background-color: initial;&quot;&gt;Aula = (&lt;/span&gt;&lt;u style=&quot;background-color: initial;&quot;&gt;Id&lt;/u&gt;&lt;span style=&quot;background-color: initial;&quot;&gt;, piso, capacidad, &lt;/span&gt;&lt;b style=&quot;background-color: initial;&quot;&gt;cÃ³digo_curso&lt;/b&gt;&lt;span style=&quot;background-color: initial;&quot;&gt;)&lt;/span&gt;&lt;br&gt;&lt;span style=&quot;background-color: initial;&quot;&gt;Dictado por = (&lt;/span&gt;&lt;b style=&quot;background-color: initial;&quot;&gt;&lt;u&gt;cÃ³digo_curso, id_instructor&lt;/u&gt;&lt;/b&gt;&lt;span style=&quot;background-color: initial;&quot;&gt;)&lt;/span&gt;&lt;br&gt;&lt;span style=&quot;background-color: initial;&quot;&gt;Instructor = (&lt;/span&gt;&lt;u style=&quot;background-color: initial;&quot;&gt;Id&lt;/u&gt;&lt;span style=&quot;background-color: initial;&quot;&gt;, nombre)&lt;/span&gt;&lt;br&gt;&lt;span style=&quot;background-color: initial;&quot;&gt;Telefono = (&lt;/span&gt;&lt;u style=&quot;background-color: initial;&quot;&gt;Id_instructor&lt;/u&gt;&lt;span style=&quot;background-color: initial;&quot;&gt;, nro)&lt;/span&gt;" style="text;html=1;align=left;verticalAlign=middle;resizable=0;points=[];autosize=1;strokeColor=none;fillColor=none;" vertex="1" parent="1">
          <mxGeometry x="240" y="525" width="290" height="260" as="geometry" />
        </mxCell>
      </root>
    </mxGraphModel>
  </diagram>
</mxfile>
